<svg width="192mm" height="192mm" viewBox="0 0 191.99999 192" version="1.1" id="svg1" xmlns="http://www.w3.org/2000/svg">
  
  <defs id="defs1"></defs>
  <g id="layer1">
    <path style="font-size:202.45px;font-family:'MS Mincho';-inkscape-font-specification:'MS Mincho';text-align:center;text-anchor:middle;fill:#5856d6;stroke-width:16.8708;fill-opacity:1" d="m 25.789987,183.78105 q 46.658398,-7.11738 69.592187,-22.93379 -4.744922,0 -9.489844,-6.32656 -8.699023,-10.28066 -26.09707,-15.81641 -11.071484,10.28067 -36.377734,19.77051 -3.954101,0 -1.58164,-3.16328 37.168554,-15.81641 55.357421,-52.98496 H 23.417526 q 0,12.65313 -5.535742,21.35215 -3.163281,4.74492 -7.908203,4.74492 -4.7449218,0 -4.7449218,-4.74492 0,-3.9541 3.1632812,-6.32656 10.2806646,-9.48985 9.4898436,-28.469532 0.790821,-3.954101 3.163281,0 1.581641,4.744922 2.372461,8.699024 H 164.97436 l 6.32657,-6.326563 17.39804,11.862301 q 3.9541,4.74492 -4.74492,3.9541 -6.32656,-0.79082 -12.65312,4.74492 l -9.48985,9.48985 q -3.16328,1.58164 -2.37246,-2.37246 L 166.556,102.32656 H 89.055611 q -5.535742,9.48984 -11.071484,16.60723 h 52.194143 l 4.74492,-5.53575 11.07149,7.90821 q 3.16328,5.53574 -5.53575,4.74492 -32.42363,56.93906 -113.087302,60.89316 -3.954102,0 -1.581641,-3.16328 z m 48.240039,-60.10234 q -5.535743,7.11738 -11.862305,12.65312 25.30625,4.74493 31.632812,11.07149 5.535742,5.53574 3.954102,11.8623 20.561335,-15.02558 32.423635,-35.58691 z M 81.147408,76.229494 H 106.45366 V 54.877345 H 81.147408 Z m 35.586922,0 H 146.7855 V 54.877345 H 116.73433 Z M 70.866744,54.877345 h -28.46953 v 21.352149 h 28.46953 z M 32.11655,44.596681 43.978854,50.132424 H 144.41304 l 4.74492,-6.326563 11.07148,7.908203 q 4.74492,3.954102 -3.16328,5.535742 V 84.928517 Q 146.7855,94.41836 146.7855,85.719337 V 80.974415 H 42.397214 v 7.117383 Q 32.11655,97.581642 32.11655,88.882618 Z m 88.57188,-12.653124 v 8.699023 q -10.28067,9.489844 -10.28067,0.79082 V 31.943557 H 72.448385 v 10.280664 q -10.280664,9.489843 -10.280664,0.79082 V 31.943557 H 2.065378 V 27.198635 H 62.167721 V 5.0556668 l 13.443945,2.3724609 q 6.326563,3.9541013 -3.163281,5.5357413 V 27.198635 H 110.40776 V 5.0556668 l 13.44395,2.3724609 q 6.32656,3.9541013 -3.16328,5.5357413 v 14.234766 h 33.21445 l 11.8623,-11.862305 15.02559,11.071485 q 4.74492,3.954101 0,5.535742 z" id="text1" aria-label="夢"></path>
  </g>
</svg>
